<svg xmlns="http://www.w3.org/2000/svg" width="281.001" height="293.001" viewBox="0 0 281.001 293.001">
  <path id="Subtraction_4" data-name="Subtraction 4" d="M264,310H26A25.986,25.986,0,0,1,.158,286.889,6.007,6.007,0,0,0,5,281a5.979,5.979,0,0,0-5-5.918V262.918A5.978,5.978,0,0,0,5,257a5.979,5.979,0,0,0-5-5.917V238.918A5.978,5.978,0,0,0,5,233a5.977,5.977,0,0,0-5-5.917V214.917A5.978,5.978,0,0,0,5,209a5.979,5.979,0,0,0-5-5.917V195H.038c.156,0,.307,0,.463,0a31.5,31.5,0,1,0,0-63c-.216,0-.37,0-.5,0v-8.087A5.978,5.978,0,0,0,5,118a5.979,5.979,0,0,0-5-5.917V99.917A5.978,5.978,0,0,0,5,94a5.979,5.979,0,0,0-5-5.918V75.917A5.978,5.978,0,0,0,5,70a5.977,5.977,0,0,0-5-5.917V51.917A5.978,5.978,0,0,0,5,46,6.008,6.008,0,0,0,.157,40.111,25.981,25.981,0,0,1,26,17H264a17.02,17.02,0,0,0,17,17V293a17.02,17.02,0,0,0-17,17Z" transform="translate(0 -17)" fill="#fff"/>
</svg>
