<svg xmlns="http://www.w3.org/2000/svg" width="624.101" height="293.596" viewBox="0 0 624.101 293.596">
  <path id="stub2" d="M486.011,293.6-95,293a25.851,25.851,0,0,1-10.12-2.043,25.931,25.931,0,0,1-8.264-5.572,25.916,25.916,0,0,1-5.572-8.265,25.79,25.79,0,0,1-1.915-7.509,5.989,5.989,0,0,0,2.785-2.166A5.961,5.961,0,0,0-117,264a6.01,6.01,0,0,0-4-5.659V245.66A6.009,6.009,0,0,0-117,240a6.01,6.01,0,0,0-4-5.659V221.66A6.009,6.009,0,0,0-117,216a6.009,6.009,0,0,0-4-5.658V197.66A6.008,6.008,0,0,0-117,192a6.01,6.01,0,0,0-4-5.659V178h.042c.155,0,.305,0,.459,0A31.536,31.536,0,0,0-89,146.5,31.536,31.536,0,0,0-120.5,115c-.225,0-.375,0-.5,0v-8.086A5.978,5.978,0,0,0-116,101a5.979,5.979,0,0,0-5-5.918V82.919A5.978,5.978,0,0,0-116,77a5.979,5.979,0,0,0-5-5.917V58.919A5.978,5.978,0,0,0-116,53a5.979,5.979,0,0,0-5-5.917V34.918A5.978,5.978,0,0,0-116,29a6.008,6.008,0,0,0-4.843-5.889,25.772,25.772,0,0,1,1.886-7.232,25.907,25.907,0,0,1,5.572-8.265,25.92,25.92,0,0,1,8.264-5.572A25.845,25.845,0,0,1-95,0L486.011.6A16.929,16.929,0,0,0,503,17h.1l0,259H503a17.019,17.019,0,0,0-17,17c0,.2,0,.4.01.6h0Z" transform="translate(503.102 293.598) rotate(180)" fill="#fff"/>
</svg>
