<svg xmlns="http://www.w3.org/2000/svg" xmlns:xlink="http://www.w3.org/1999/xlink" width="642.1" height="311" viewBox="0 0 642.1 311">
  <defs>
    <filter id="stub22" x="0" y="0" width="642.1" height="311" filterUnits="userSpaceOnUse">
      <feOffset dy="3" input="SourceAlpha"/>
      <feGaussianBlur stdDeviation="3" result="blur"/>
      <feFlood flood-opacity="0.161"/>
      <feComposite operator="in" in2="blur"/>
      <feComposite in="SourceGraphic"/>
    </filter>
  </defs>
  <g transform="matrix(1, 0, 0, 1, 0, 0)" filter="url(#stub22)">
    <path id="stub22-2" data-name="stub22" d="M486.011,293-95,292.4a25.9,25.9,0,0,1-10.12-2.039,25.934,25.934,0,0,1-8.264-5.561,25.861,25.861,0,0,1-5.572-8.248,25.7,25.7,0,0,1-1.915-7.494,5.987,5.987,0,0,0,2.785-2.162A5.941,5.941,0,0,0-117,263.46a6,6,0,0,0-4-5.647V245.158a6,6,0,0,0,4-5.648,6,6,0,0,0-4-5.647V221.207a6,6,0,0,0,4-5.648,6,6,0,0,0-4-5.646V197.256a6,6,0,0,0,4-5.648,6,6,0,0,0-4-5.647v-8.324h.5A31.5,31.5,0,0,0-89,146.2a31.5,31.5,0,0,0-31.5-31.436h-.5V106.7a5.969,5.969,0,0,0,5-5.9,5.97,5.97,0,0,0-5-5.906V82.75a5.969,5.969,0,0,0,5-5.907,5.97,5.97,0,0,0-5-5.9V58.8a5.969,5.969,0,0,0,5-5.907,5.97,5.97,0,0,0-5-5.9V34.847a5.969,5.969,0,0,0,5-5.906,6,6,0,0,0-4.843-5.877,25.677,25.677,0,0,1,1.886-7.217A25.851,25.851,0,0,1-113.385,7.6a25.923,25.923,0,0,1,8.264-5.561A25.891,25.891,0,0,1-95,0L486.011.6A16.913,16.913,0,0,0,503,16.965h.1V276.084c-9.385.01-17.09,6.951-17.1,16.317,0,.2,0,.4.01.6h0Z" transform="translate(512.1 299) rotate(180)" fill="#fff"/>
  </g>
</svg>
